General:-
Format                           : AVI
Format/Info                      : Audio Video Interleave
File size                        : 696 MiB
Duration                         : 1h 35mn
Overall bit rate                 : 1 015 Kbps
Writing application              : VirtualDubMod 1.5.10.2 (build 2540/release)
Writing library                  : VirtualDubMod build 2540/release

Video:-
ID                               : 0
Format                           : MPEG-4 Visual
Format profile                   : AdvancedSimple@L5
Format settings, BVOP            : Yes
Format settings, QPel            : No
Format settings, GMC             : No warppoints
Format settings, Matrix          : Default (H.263)
Muxing mode                      : Packed bitstream
Codec ID                         : XVID
Codec ID/Hint                    : XviD
Duration                         : 1h 35mn
Bit rate                         : 813 Kbps
Width                            : 640 pixels
Height                           : 302 pixels
Display aspect ratio             : 2.2:1
Frame rate                       : 23.976 fps
Resolution                       : 24 bits
Colorimetry                      : 4:2:0
Scan type                        : Progressive
Bits/(Pixel*Frame)               : 0.175
Stream size                      : 558 MiB (80%)
Writing library                  : XviD 1.1.0 (UTC 2005-11-22)

Audio:-
ID                               : 1
Format                           : AC-3
Format/Info                      : Audio Coding 3
Codec ID                         : 2000
Duration                         : 1h 35mn
Bit rate mode                    : Constant
Bit rate                         : 192 Kbps
Channel(s)                       : 2 channels
Channel positions                : L R
Sampling rate                    : 48.0 KHz
Stream size                      : 132 MiB (19%)
Alignment                        : Split accross interleaves
Interleave, duration             : 42 ms (1.00 video frame)
Interleave, preload duration     : 500 ms


*********************************************************************
ScreenShots
1. http://img532.imageshack.us/img532/9765/41328085.jpg
2. http://img403.imageshack.us/img403/3644/47884721.jpg
3. http://img211.imageshack.us/img211/7177/71300627.jpg
4. http://img211.imageshack.us/img211/2863/79052654.jpg
5. http://img532.imageshack.us/img532/7854/73284199.jpg
*********************************************************************
Trailer:*********************************************************************
IMDB Link: http://www.imdb.com/title/tt0206226/
*********************************************************************
Genre: Comedy/ Horror/ Mystery
*********************************************************************
Plot: Spoof of 1960's Beach Party/Gidget 

surfing movies mixed with slasher horror films stars Lauren Ambrose as 

Florence Forrest, a not-so-innocent girl in 1960's Malibu who becomes 

"Chicklet" the first girl surfer at Malibu Beach, only Florence suffers from 

dissociative identity disorder and occasionally her alter ego Ann Bowman, a 

sexually aggressive, foul-speaking girl, comes out in which during that time 

several beach goers are found murdered. The suspects include Chicklet herself, 

surfer Kanaka, B-horror film actress Bettina Barnes, exchange student Lars, 

and even Chicklet's own mother.
*********************************************************************
Download, Comment, Seed and then Enjoy